# Blender v2.78 (sub 0) OBJ File: ''
# www.blender.org
mtllib frameEffect.mtl
o Plane
v -1.000000 0.000000 1.000000
v 1.000000 0.000000 1.000000
v -1.000000 0.000000 -1.000000
v 1.000000 0.000000 -1.000000
v -1.000000 0.000000 0.000000
v 0.000000 0.000000 1.000000
v 1.000000 0.000000 0.000000
v 0.000000 0.000000 -1.000000
v -1.000000 0.000000 0.500000
v 0.500000 0.000000 1.000000
v 1.000000 0.000000 -0.500000
v -0.500000 0.000000 -1.000000
v -1.000000 0.000000 -0.500000
v -0.500000 0.000000 1.000000
v 1.000000 0.000000 0.500000
v 0.500000 0.000000 -1.000000
v -1.000000 0.000000 0.750000
v 0.750000 0.000000 1.000000
v 1.000000 0.000000 -0.750000
v -0.750000 0.000000 -1.000000
v -1.000000 0.000000 -0.250000
v -0.250000 0.000000 1.000000
v 1.000000 0.000000 0.250000
v 0.250000 0.000000 -1.000000
v 0.000000 0.000000 -0.750000
v -0.750000 0.000000 0.000000
v -1.000000 0.000000 0.250000
v 0.250000 0.000000 1.000000
v 1.000000 0.000000 -0.250000
v -0.250000 0.000000 -1.000000
v -1.000000 0.000000 -0.750000
v -0.750000 0.000000 1.000000
v 1.000000 0.000000 0.750000
v 0.750000 0.000000 -1.000000
v 0.000000 0.000000 0.750000
v 0.750000 0.000000 0.000000
v 0.500000 0.000000 0.750000
v 0.750000 0.000000 0.500000
v -0.500000 0.000000 0.750000
v -0.750000 0.000000 0.500000
v -0.500000 0.000000 -0.750000
v -0.750000 0.000000 -0.500000
v 0.500000 0.000000 -0.750000
v 0.750000 0.000000 -0.500000
v 0.750000 0.000000 -0.250000
v 0.250000 0.000000 -0.750000
v -0.750000 0.000000 -0.250000
v -0.750000 0.000000 -0.750000
v -0.250000 0.000000 0.750000
v -0.750000 0.000000 0.750000
v -0.750000 0.000000 0.250000
v 0.750000 0.000000 0.750000
v 0.250000 0.000000 0.750000
v 0.750000 0.000000 0.250000
v -0.250000 0.000000 -0.750000
v 0.750000 0.000000 -0.750000
vn 0.0000 1.0000 0.0000
usemtl None
s off
f 56//1 19//1 4//1 34//1
f 55//1 25//1 8//1 30//1
f 54//1 23//1 7//1 36//1
f 52//1 33//1 15//1 38//1
f 48//1 41//1 12//1 20//1
f 46//1 43//1 16//1 24//1
f 45//1 29//1 11//1 44//1
f 36//1 7//1 29//1 45//1
f 25//1 46//1 24//1 8//1
f 21//1 47//1 42//1 13//1
f 5//1 26//1 47//1 21//1
f 31//1 48//1 20//1 3//1
f 13//1 42//1 48//1 31//1
f 14//1 22//1 49//1 39//1
f 22//1 6//1 35//1 49//1
f 17//1 50//1 40//1 9//1
f 1//1 32//1 50//1 17//1
f 32//1 14//1 39//1 50//1
f 27//1 51//1 26//1 5//1
f 9//1 40//1 51//1 27//1
f 10//1 18//1 52//1 37//1
f 18//1 2//1 33//1 52//1
f 6//1 28//1 53//1 35//1
f 28//1 10//1 37//1 53//1
f 38//1 15//1 23//1 54//1
f 41//1 55//1 30//1 12//1
f 43//1 56//1 34//1 16//1
f 44//1 11//1 19//1 56//1
